<svg width="136" height="128" viewBox="0 0 136 128" fill="none" xmlns="http://www.w3.org/2000/svg">
<g filter="url(#filter0_i_2_92)">
<circle cx="64" cy="64" r="64" fill="black"/>
</g>
<path d="M33.456 79.336C32.944 79.336 32.528 79.224 32.208 79C31.92 78.744 31.744 78.424 31.68 78.04C31.648 77.624 31.744 77.16 31.968 76.648L45.168 46.6C45.456 45.96 45.792 45.512 46.176 45.256C46.592 44.968 47.04 44.824 47.52 44.824C48 44.824 48.432 44.968 48.816 45.256C49.232 45.512 49.568 45.96 49.824 46.6L63.072 76.648C63.328 77.16 63.424 77.624 63.36 78.04C63.328 78.456 63.168 78.776 62.88 79C62.592 79.224 62.192 79.336 61.68 79.336C61.104 79.336 60.64 79.192 60.288 78.904C59.936 78.584 59.648 78.136 59.424 77.56L55.872 69.352L57.792 70.36H37.152L39.12 69.352L35.616 77.56C35.328 78.168 35.024 78.616 34.704 78.904C34.384 79.192 33.968 79.336 33.456 79.336ZM47.472 49.768L39.744 67.96L38.592 67.048H56.352L55.296 67.96L47.568 49.768H47.472ZM76.179 79.336C75.539 79.336 75.043 79.16 74.691 78.808C74.371 78.424 74.211 77.896 74.211 77.224V61.48L75.075 64.216L63.027 47.608C62.739 47.192 62.595 46.776 62.595 46.36C62.627 45.912 62.803 45.544 63.123 45.256C63.443 44.968 63.859 44.824 64.371 44.824C64.819 44.824 65.219 44.936 65.571 45.16C65.923 45.352 66.243 45.672 66.531 46.12L76.755 60.232H75.747L85.971 46.12C86.323 45.64 86.659 45.304 86.979 45.112C87.299 44.92 87.683 44.824 88.131 44.824C88.643 44.824 89.043 44.968 89.331 45.256C89.619 45.512 89.763 45.864 89.763 46.312C89.795 46.728 89.651 47.176 89.331 47.656L77.331 64.216L78.147 61.48V77.224C78.147 78.632 77.491 79.336 76.179 79.336Z" fill="white"/>
<path d="M26.12 53.992L27.416 56.056L16.12 62.984L27.416 69.976L25.976 71.944L13.816 64.344V61.592L26.12 53.992Z" fill="white"/>
<path d="M85.696 75.336L99.36 47.112L101.504 48.136L87.872 76.296L85.696 75.336ZM119.604 61.608V64.36L107.444 71.944L106.004 69.96L117.3 62.984L106.004 56.04L107.316 53.992L119.604 61.608Z" fill="white"/>
<defs>
<filter id="filter0_i_2_92" x="0" y="0" width="128" height="132" filterUnits="userSpaceOnUse" color-interpolation-filters="sRGB">
<feFlood flood-opacity="0" result="BackgroundImageFix"/>
<feBlend mode="normal" in="SourceGraphic" in2="BackgroundImageFix" result="shape"/>
<feColorMatrix in="SourceAlpha" type="matrix" values="0 0 0 0 0 0 0 0 0 0 0 0 0 0 0 0 0 0 127 0" result="hardAlpha"/>
<feOffset dy="4"/>
<feGaussianBlur stdDeviation="2"/>
<feComposite in2="hardAlpha" operator="arithmetic" k2="-1" k3="1"/>
<feColorMatrix type="matrix" values="0 0 0 0 0 0 0 0 0 0 0 0 0 0 0 0 0 0 0.25 0"/>
<feBlend mode="normal" in2="shape" result="effect1_innerShadow_2_92"/>
</filter>
</defs>
</svg>
